<svg xmlns="http://www.w3.org/2000/svg" version="1.1" xmlns:xlink="http://www.w3.org/1999/xlink" xmlns:svgjs="http://svgjs.dev/svgjs" width="1000" height="270" viewBox="0 0 1000 270"><g transform="matrix(1,0,0,1,-0.6060606060606233,0.16602815784119684)"><svg viewBox="0 0 396 107" data-background-color="#ffbe79" preserveAspectRatio="xMidYMid meet" height="270" width="1000" xmlns="http://www.w3.org/2000/svg" xmlns:xlink="http://www.w3.org/1999/xlink"><g id="tight-bounds" transform="matrix(1,0,0,1,0.2400000000000091,-0.06579514350087834)"><svg viewBox="0 0 395.52 107.13159148753424" height="107.13159148753424" width="395.52"><g><svg viewBox="0 0 397.4976 107.6672494449719" height="107.13159148753424" width="395.52"><g><rect width="397.4976" height="3.2977056474326822" x="0" y="59.16918718755941" fill="#e8772e" opacity="1" stroke-width="0" stroke="transparent" fill-opacity="1" class="rect-o-0" data-fill-palette-color="secondary" rx="1%" id="o-0" data-palette-color="#e8772e"></rect></g><g transform="matrix(1,0,0,1,0.9887999999999693,71.0996301319363)"><svg viewBox="0 0 395.52000000000004 36.56761931303561" height="36.56761931303561" width="395.52000000000004"><g><svg viewBox="0 0 395.52000000000004 36.56761931303561" height="36.56761931303561" width="395.52000000000004"><g><svg viewBox="0 0 395.52000000000004 36.56761931303561" height="36.56761931303561" width="395.52000000000004"><g transform="matrix(1,0,0,1,0,0)"><svg width="395.52000000000004" viewBox="2.8600001335144043 -32.400001525878906 350.3900146484375 32.400001525878906" height="36.56761931303561" data-palette-color="#e56333"><path d="M23.36-19.02L23.36-25.93 15.36-25.93 15.36-32.4 27.88-32.4 34.38-25.93 34.38-19.34 31.13-16.09 34.38-12.84 34.38-6.47 27.88 0 15.36 0 15.36-6.47 23.36-6.47 23.36-13.38 15.36-13.38 15.36-19.02 23.36-19.02ZM2.86 0L2.86-32.4 13.65-32.4 13.65 0 2.86 0ZM70.38-32.4L70.38-6.47 63.91 0 55.59 0 55.59-6.47 59.59-6.47 59.59-32.4 70.38-32.4ZM49.9-32.4L49.9-6.47 53.88-6.47 53.88 0 45.58 0 39.08-6.47 39.08-32.4 49.9-32.4ZM86.59-32.4L86.59-6.47 95.84-6.47 95.84 0 82.27 0 75.8-6.47 75.8-25.93 82.27-32.4 86.59-32.4ZM92.3-11.55L92.3-17.97 107.12-17.97 107.12 0 97.55 0 97.55-11.55 92.3-11.55ZM96.33-25.93L88.3-25.93 88.3-32.4 101.46-32.4 107.12-25.93 107.12-22.68 96.33-22.68 96.33-25.93ZM122.4-25.83L122.4-6.59 126.46-6.59 126.46 0 118.16 0 111.59-6.47 111.59-25.93 118.16-32.4 126.46-32.4 126.46-25.83 122.4-25.83ZM132.29-6.59L132.29-25.83 128.17-25.83 128.17-32.4 136.54-32.4 143.08-25.93 143.08-6.47 136.54 0 128.17 0 128.17-6.59 132.29-6.59ZM185.36 0L181.02 0 181.02-12.13 167-12.13 160.51-18.63 160.51-25.93 167-32.4 170.67-32.4 170.67-20.9 185.56-20.9 191.83-14.4 191.83-6.47 185.36 0ZM181.02-26.56L172.38-26.56 172.38-32.4 185.34-32.4 190.95-26.76 190.95-23.32 181.02-23.32 181.02-26.56ZM160.51-6.47L160.51-9.72 171.3-9.72 171.3-5.86 179.31-5.86 179.31 0 165.95 0 160.51-6.47ZM203.92 0L203.92-23.66 215.15-23.66 215.15 0 203.92 0ZM195.47-25.34L195.47-32.4 223.59-32.4 223.59-25.34 195.47-25.34ZM258.75-32.4L258.75-6.47 252.28 0 243.95 0 243.95-6.47 247.96-6.47 247.96-32.4 258.75-32.4ZM238.26-32.4L238.26-6.47 242.24-6.47 242.24 0 233.94 0 227.45-6.47 227.45-32.4 238.26-32.4ZM289.04 0L276.71 0 276.71-6.47 284.72-6.47 284.72-25.93 276.71-25.93 276.71-32.4 289.04-32.4 295.54-25.93 295.54-6.47 289.04 0ZM264.21 0L264.21-32.4 275-32.4 275 0 264.21 0ZM300 0L300-6.91 303.25-6.91 303.25-25.51 300-25.51 300-32.4 317.29-32.4 317.29-25.51 314.04-25.51 314.04-6.91 317.29-6.91 317.29 0 300 0ZM332.57-25.83L332.57-6.59 336.62-6.59 336.62 0 328.32 0 321.75-6.47 321.75-25.93 328.32-32.4 336.62-32.4 336.62-25.83 332.57-25.83ZM342.46-6.59L342.46-25.83 338.33-25.83 338.33-32.4 346.7-32.4 353.25-25.93 353.25-6.47 346.7 0 338.33 0 338.33-6.59 342.46-6.59Z" opacity="1" transform="matrix(1,0,0,1,0,0)" fill="#e56333" class="undefined-text-0" data-fill-palette-color="primary" id="text-0"></path></svg></g></svg></g></svg></g></svg></g><g transform="matrix(1,0,0,1,152.29742818815237,0)"><svg viewBox="0 0 92.90274362369522 50.536449890615216" height="50.536449890615216" width="92.90274362369522"><g><svg xmlns="http://www.w3.org/2000/svg" xmlns:xlink="http://www.w3.org/1999/xlink" version="1.1" viewBox="30.233022689819336 63.7448616027832 195.56100463867188 128.51243591308594" x="8" y="0" height="50.536449890615216" width="76.90274362369522" class="icon-icon-0" data-fill-palette-color="accent" id="icon-0"><path d="M200.755 110.874c0 3.959-3.209 7.168-7.168 7.168s-7.168-3.209-7.168-7.168c0-3.959 3.209-7.168 7.168-7.168s7.168 3.209 7.168 7.168z" fill="#e8772e" data-fill-palette-color="accent"></path><path d="M172.621 110.874c0 3.959-3.209 7.168-7.168 7.168s-7.168-3.209-7.168-7.168c0-3.959 3.209-7.168 7.168-7.168s7.168 3.209 7.168 7.168z" fill="#e8772e" data-fill-palette-color="accent"></path><path d="M186.982 123.879c0 3.959-3.209 7.168-7.168 7.168s-7.168-3.209-7.168-7.168c0-3.959 3.209-7.168 7.168-7.168s7.168 3.209 7.168 7.168z" fill="#e8772e" data-fill-palette-color="accent"></path><path d="M186.982 97.689c0 3.959-3.209 7.168-7.168 7.168s-7.168-3.209-7.168-7.168c0-3.959 3.209-7.168 7.168-7.168s7.168 3.209 7.168 7.168z" fill="#e8772e" data-fill-palette-color="accent"></path><path d="M224.102 124.903c-1.255-15.053-2.381-20.608-3.174-26.547-1.357-9.984-5.095-18.611-11.187-24.832-6.067-6.246-14.515-9.805-24.064-9.779-10.087 0-19.2 4.301-25.625 11.085h-64.103c-6.425-6.809-15.539-11.085-25.626-11.085-9.549-0.026-17.997 3.533-24.064 9.779-6.093 6.221-9.831 14.848-11.187 24.832-0.819 5.939-1.946 11.495-3.175 26.547-0.845 10.189-1.664 19.789-1.664 28.493 0 4.839 0.256 9.369 0.947 13.619 1.024 6.323 3.046 12.109 7.015 16.691 1.971 2.279 4.403 4.173 7.245 5.581s6.041 2.329 9.575 2.765c1.101 0.128 2.176 0.205 3.251 0.205 4.787 0.025 9.267-1.459 13.005-4.019 5.657-3.84 9.805-9.702 13.363-16.717 3.046-6.067 5.632-13.107 8.064-20.71h70.605c3.353 10.573 7.04 19.968 11.853 27.315 2.688 4.096 5.811 7.577 9.575 10.112 3.738 2.535 8.218 4.019 13.005 4.019 1.075 0 2.15-0.077 3.251-0.205 4.71-0.589 8.857-2.023 12.288-4.352 2.56-1.715 4.71-3.917 6.375-6.4 2.509-3.738 4.019-8.064 4.915-12.749s1.229-9.754 1.229-15.207c-0.025-8.653-0.845-18.279-1.69-28.442zM214.707 165.351c-0.845 5.248-2.406 9.088-4.633 11.623-1.126 1.28-2.406 2.304-4.071 3.149-1.664 0.819-3.712 1.459-6.298 1.792-0.691 0.077-1.331 0.128-1.946 0.128-2.765-0.025-5.018-0.743-7.296-2.279-3.405-2.253-6.835-6.656-9.933-12.826-3.097-6.144-5.913-13.977-8.55-22.733l-1.101-3.635h-85.734l-1.101 3.635c-3.533 11.673-7.373 21.683-11.751 28.288-2.176 3.303-4.454 5.734-6.733 7.27-2.304 1.511-4.531 2.253-7.296 2.279-0.614 0-1.28-0.051-1.946-0.128-3.456-0.435-5.939-1.408-7.859-2.688-1.434-0.973-2.586-2.15-3.584-3.635-1.485-2.227-2.637-5.197-3.353-8.96s-1.05-8.243-1.024-13.261c0-8.038 0.794-17.459 1.639-27.648 1.229-14.823 2.253-19.635 3.123-26.01 1.127-8.32 4.147-14.771 8.371-19.072 4.224-4.275 9.626-6.656 16.742-6.681 7.834 0 14.797 3.584 19.405 9.216l1.536 1.869h73.446l1.536-1.869c4.608-5.632 11.571-9.216 19.405-9.216 7.117 0.025 12.518 2.406 16.743 6.681 4.198 4.301 7.219 10.752 8.371 19.072 0.87 6.374 1.894 11.187 3.123 26.01 0.845 10.189 1.638 19.584 1.638 27.648-0.051 4.48-0.281 8.499-0.87 11.981z" fill="#e8772e" data-fill-palette-color="accent"></path><path d="M59.673 95.667c-3.021 3.558-4.839 8.141-4.839 13.159 0 5.35 2.074 10.189 5.453 13.824l13.184-13.184-13.799-13.799z" fill="#e8772e" data-fill-palette-color="accent"></path><path d="M62.694 124.851c3.456 2.688 7.757 4.301 12.467 4.301 5.017 0 9.6-1.817 13.159-4.838l-12.544-12.544-13.081 13.082z" fill="#e8772e" data-fill-palette-color="accent"></path><path d="M88.986 93.927c-3.635-3.379-8.474-5.453-13.824-5.453-5.017 0-9.6 1.817-13.159 4.838l13.773 13.799 13.21-13.184z" fill="#e8772e" data-fill-palette-color="accent"></path><path d="M78.106 109.44l12.544 12.544c3.021-3.558 4.838-8.141 4.838-13.159 0-4.71-1.613-9.011-4.301-12.467l-13.082 13.082z" fill="#e8772e" data-fill-palette-color="accent"></path></svg></g></svg></g><g><rect width="75.76430818815238" height="3.2977056474326822" y="46.23874424318254" x="245.20017181184758" fill="#e8772e" data-fill-palette-color="secondary"></rect><rect width="75.76430818815238" height="3.2977056474326822" y="46.23874424318254" x="76.53312" fill="#e8772e" data-fill-palette-color="secondary"></rect></g></svg></g><defs></defs></svg><rect width="395.52" height="107.13159148753424" fill="none" stroke="none" visibility="hidden"></rect></g></svg></g></svg>